ffmpeg started on 2025-06-16 at 16:32:39
Report written to "D:\Convert\FFMetrics\reports\psnr_report-6.txt"
Log level: 32
Command line:
ffmpeg -hide_banner -nostdin -i "G:\\\xc0\xed\xe8\xec\xe5\\[\xd2\xee\xef]\\\xd0\xfb\xf6\xe0\xf0\xfc-\xe2\xe0\xec\xef\xe8\xf0\\\xd2\xc2-1\\[JamClub] Vampire Knight - 10_HEVC.mkv" -i "G:\\\xc0\xed\xe8\xec\xe5\\[\xd2\xee\xef]\\\xd0\xfb\xf6\xe0\xf0\xfc-\xe2\xe0\xec\xef\xe8\xf0\\\xd2\xc2-1\\[JamClub] Vampire Knight - 10.mp4" -lavfi "[0:v]settb=AVTB,setpts=PTS-STARTPTS,format=pix_fmts=yuv420p10,fps=24000/1001,scale=1920:1080:flags=bicubic[main];[1:v]settb=AVTB,setpts=PTS-STARTPTS,format=pix_fmts=yuv420p,fps=24000/1001,scale=1920:1080:flags=bicubic[ref];[main][ref]psnr=eof_action=endall:stats_file='D\\:/Convert/FFMetrics/logs/psnr_logfile-6.txt'" -f null -
Input #0, matroska,webm, from 'G:\Аниме\[Топ]\Рыцарь-вампир\ТВ-1\[JamClub] Vampire Knight - 10_HEVC.mkv':
  Metadata:
    COMPATIBLE_BRANDS: isomiso2avc1mp41
    MAJOR_BRAND     : isom
    MINOR_VERSION   : 512
    ENCODER         : Lavf61.7.100
  Duration: 00:24:23.18, start: -0.001000, bitrate: 1041 kb/s
  Stream #0:0: Video: hevc (Main 10), yuv420p10le(tv, bt709, progressive), 1920x1080 [SAR 1:1 DAR 16:9], 23.98 fps, 23.98 tbr, 1k tbn (default)
      Metadata:
        HANDLER_NAME    : VideoHandler
        VENDOR_ID       : [0][0][0][0]
        ENCODER         : Lavc61.19.100 libx265
        BPS             : 843149
        DURATION        : 00:24:23.086708333
        NUMBER_OF_FRAMES: 43716
        NUMBER_OF_BYTES : 154200063
        _STATISTICS_WRITING_APP: mkvpropedit v66.0.0 ('Josie') 64-bit
        _STATISTICS_WRITING_DATE_UTC: 2025-06-16 09:05:52
        _STATISTICS_TAGS: BPS DURATION NUMBER_OF_FRAMES NUMBER_OF_BYTES
  Stream #0:1(eng): Audio: aac (LC), 48000 Hz, stereo, fltp (default)
      Metadata:
        HANDLER_NAME    : SoundHandler
        VENDOR_ID       : [0][0][0][0]
        ENCODER         : Lavc61.19.100 aac
        BPS             : 194195
        DURATION        : 00:24:23.141000000
        NUMBER_OF_FRAMES: 68586
        NUMBER_OF_BYTES : 35516846
        _STATISTICS_WRITING_APP: mkvpropedit v66.0.0 ('Josie') 64-bit
        _STATISTICS_WRITING_DATE_UTC: 2025-06-16 09:05:52
        _STATISTICS_TAGS: BPS DURATION NUMBER_OF_FRAMES NUMBER_OF_BYTES
Input #1, mov,mp4,m4a,3gp,3g2,mj2, from 'G:\Аниме\[Топ]\Рыцарь-вампир\ТВ-1\[JamClub] Vampire Knight - 10.mp4':
  Metadata:
    major_brand     : isom
    minor_version   : 512
    compatible_brands: isomiso2avc1mp41
    encoder         : Lavf60.16.100
  Duration: 00:24:23.16, start: 0.000000, bitrate: 3185 kb/s
  Stream #1:0[0x1](und): Video: h264 (High) (avc1 / 0x31637661), yuv420p(progressive), 1920x1080 [SAR 1:1 DAR 16:9], 2984 kb/s, 29.88 fps, 23.98 tbr, 90k tbn (default)
      Metadata:
        handler_name    : VideoHandler
        vendor_id       : [0][0][0][0]
  Stream #1:1[0x2](eng): Audio: aac (LC) (mp4a / 0x6134706D), 48000 Hz, stereo, fltp, 191 kb/s (default)
      Metadata:
        handler_name    : SoundHandler
        vendor_id       : [0][0][0][0]
Stream mapping:
  Stream #0:0 (hevc) -> settb:default
  Stream #1:0 (h264) -> settb:default
  psnr:default -> Stream #0:0 (wrapped_avframe)
  Stream #0:1 -> #0:1 (aac (native) -> pcm_s16le (native))
Output #0, null, to 'pipe:':
  Metadata:
    COMPATIBLE_BRANDS: isomiso2avc1mp41
    MAJOR_BRAND     : isom
    MINOR_VERSION   : 512
    encoder         : Lavf61.7.100
  Stream #0:0: Video: wrapped_avframe, yuv420p10le(tv, bt709, progressive), 1920x1080 [SAR 1:1 DAR 16:9], q=2-31, 200 kb/s, 23.98 fps, 23.98 tbn
      Metadata:
        encoder         : Lavc61.19.100 wrapped_avframe
  Stream #0:1(eng): Audio: pcm_s16le, 48000 Hz, stereo, s16, 1536 kb/s (default)
      Metadata:
        HANDLER_NAME    : SoundHandler
        VENDOR_ID       : [0][0][0][0]
        _STATISTICS_TAGS: BPS DURATION NUMBER_OF_FRAMES NUMBER_OF_BYTES
        BPS             : 194195
        DURATION        : 00:24:23.141000000
        NUMBER_OF_FRAMES: 68586
        NUMBER_OF_BYTES : 35516846
        _STATISTICS_WRITING_APP: mkvpropedit v66.0.0 ('Josie') 64-bit
        _STATISTICS_WRITING_DATE_UTC: 2025-06-16 09:05:52
        encoder         : Lavc61.19.100 pcm_s16le
frame=  109 fps=0.0 q=-0.0 size=N/A time=00:00:04.54 bitrate=N/A speed=8.97x    frame=  269 fps=264 q=-0.0 size=N/A time=00:00:11.21 bitrate=N/A speed=  11x    frame=  477 fps=309 q=-0.0 size=N/A time=00:00:19.89 bitrate=N/A speed=12.9x    frame=  709 fps=345 q=-0.0 size=N/A time=00:00:29.57 bitrate=N/A speed=14.4x    frame=  917 fps=357 q=-0.0 size=N/A time=00:00:38.24 bitrate=N/A speed=14.9x    frame= 1133 fps=366 q=-0.0 size=N/A time=00:00:47.25 bitrate=N/A speed=15.3x    frame= 1359 fps=377 q=-0.0 size=N/A time=00:00:56.68 bitrate=N/A speed=15.7x    frame= 1596 fps=388 q=-0.0 size=N/A time=00:01:06.56 bitrate=N/A speed=16.2x    frame= 1838 fps=396 q=-0.0 size=N/A time=00:01:16.65 bitrate=N/A speed=16.5x    frame= 2069 fps=402 q=-0.0 size=N/A time=00:01:26.29 bitrate=N/A speed=16.8x    frame= 2303 fps=407 q=-0.0 size=N/A time=00:01:36.05 bitrate=N/A speed=  17x    frame= 2518 fps=407 q=-0.0 size=N/A time=00:01:45.02 bitrate=N/A speed=  17x    frame= 2741 fps=409 q=-0.0 size=N/A time=00:01:54.32 bitrate=N/A speed=17.1x    frame= 2953 fps=410 q=-0.0 size=N/A time=00:02:03.16 bitrate=N/A speed=17.1x    frame= 3179 fps=411 q=-0.0 size=N/A time=00:02:12.59 bitrate=N/A speed=17.1x    frame= 3400 fps=412 q=-0.0 size=N/A time=00:02:21.80 bitrate=N/A speed=17.2x    frame= 3638 fps=415 q=-0.0 size=N/A time=00:02:31.73 bitrate=N/A speed=17.3x    frame= 3859 fps=416 q=-0.0 size=N/A time=00:02:40.95 bitrate=N/A speed=17.3x    frame= 4058 fps=414 q=-0.0 size=N/A time=00:02:49.25 bitrate=N/A speed=17.3x    frame= 4221 fps=410 q=-0.0 size=N/A time=00:02:56.05 bitrate=N/A speed=17.1x    frame= 4392 fps=406 q=-0.0 size=N/A time=00:03:03.18 bitrate=N/A speed=16.9x    frame= 4575 fps=404 q=-0.0 size=N/A time=00:03:10.81 bitrate=N/A speed=16.8x    frame= 4765 fps=402 q=-0.0 size=N/A time=00:03:18.74 bitrate=N/A speed=16.8x    frame= 4969 fps=402 q=-0.0 size=N/A time=00:03:27.24 bitrate=N/A speed=16.8x    frame= 5112 fps=397 q=-0.0 size=N/A time=00:03:33.21 bitrate=N/A speed=16.6x    frame= 5322 fps=397 q=-0.0 size=N/A time=00:03:41.97 bitrate=N/A speed=16.6x    frame= 5486 fps=394 q=-0.0 size=N/A time=00:03:48.81 bitrate=N/A speed=16.4x    frame= 5679 fps=394 q=-0.0 size=N/A time=00:03:56.86 bitrate=N/A speed=16.4x    frame= 5890 fps=394 q=-0.0 size=N/A time=00:04:05.66 bitrate=N/A speed=16.4x    frame= 6104 fps=395 q=-0.0 size=N/A time=00:04:14.58 bitrate=N/A speed=16.5x    frame= 6330 fps=396 q=-0.0 size=N/A time=00:04:24.01 bitrate=N/A speed=16.5x    frame= 6581 fps=399 q=-0.0 size=N/A time=00:04:34.48 bitrate=N/A speed=16.6x    frame= 6839 fps=402 q=-0.0 size=N/A time=00:04:45.24 bitrate=N/A speed=16.8x    frame= 7085 fps=404 q=-0.0 size=N/A time=00:04:55.50 bitrate=N/A speed=16.9x    frame= 7338 fps=407 q=-0.0 size=N/A time=00:05:06.05 bitrate=N/A speed=  17x    frame= 7584 fps=409 q=-0.0 size=N/A time=00:05:16.31 bitrate=N/A speed=  17x    frame= 7824 fps=410 q=-0.0 size=N/A time=00:05:26.32 bitrate=N/A speed=17.1x    frame= 8070 fps=412 q=-0.0 size=N/A time=00:05:36.58 bitrate=N/A speed=17.2x    frame= 8306 fps=413 q=-0.0 size=N/A time=00:05:46.42 bitrate=N/A speed=17.2x    frame= 8537 fps=414 q=-0.0 size=N/A time=00:05:56.06 bitrate=N/A speed=17.3x    frame= 8772 fps=415 q=-0.0 size=N/A time=00:06:05.86 bitrate=N/A speed=17.3x    frame= 9005 fps=416 q=-0.0 size=N/A time=00:06:15.58 bitrate=N/A speed=17.4x    frame= 9255 fps=417 q=-0.0 size=N/A time=00:06:26.01 bitrate=N/A speed=17.4x    frame= 9481 fps=418 q=-0.0 size=N/A time=00:06:35.47 bitrate=N/A speed=17.4x    frame= 9713 fps=419 q=-0.0 size=N/A time=00:06:45.11 bitrate=N/A speed=17.5x    frame= 9952 fps=420 q=-0.0 size=N/A time=00:06:55.08 bitrate=N/A speed=17.5x    frame=10194 fps=421 q=-0.0 size=N/A time=00:07:05.17 bitrate=N/A speed=17.5x    frame=10429 fps=422 q=-0.0 size=N/A time=00:07:14.97 bitrate=N/A speed=17.6x    frame=10679 fps=423 q=-0.0 size=N/A time=00:07:25.40 bitrate=N/A speed=17.6x    frame=10923 fps=424 q=-0.0 size=N/A time=00:07:35.58 bitrate=N/A speed=17.7x    frame=11162 fps=424 q=-0.0 size=N/A time=00:07:45.54 bitrate=N/A speed=17.7x    frame=11396 fps=425 q=-0.0 size=N/A time=00:07:55.30 bitrate=N/A speed=17.7x    frame=11634 fps=426 q=-0.0 size=N/A time=00:08:05.23 bitrate=N/A speed=17.8x    frame=11858 fps=426 q=-0.0 size=N/A time=00:08:14.57 bitrate=N/A speed=17.8x    frame=12097 fps=427 q=-0.0 size=N/A time=00:08:24.54 bitrate=N/A speed=17.8x    frame=12320 fps=427 q=-0.0 size=N/A time=00:08:33.84 bitrate=N/A speed=17.8x    frame=12562 fps=428 q=-0.0 size=N/A time=00:08:43.94 bitrate=N/A speed=17.8x    frame=12821 fps=429 q=-0.0 size=N/A time=00:08:54.74 bitrate=N/A speed=17.9x    frame=13068 fps=430 q=-0.0 size=N/A time=00:09:05.04 bitrate=N/A speed=17.9x    frame=13288 fps=430 q=-0.0 size=N/A time=00:09:14.22 bitrate=N/A speed=17.9x    frame=13539 fps=430 q=-0.0 size=N/A time=00:09:24.68 bitrate=N/A speed=  18x    frame=13780 fps=431 q=-0.0 size=N/A time=00:09:34.74 bitrate=N/A speed=  18x    frame=14024 fps=432 q=-0.0 size=N/A time=00:09:44.91 bitrate=N/A speed=  18x    frame=14287 fps=433 q=-0.0 size=N/A time=00:09:55.88 bitrate=N/A speed=18.1x    frame=14534 fps=434 q=-0.0 size=N/A time=00:10:06.18 bitrate=N/A speed=18.1x    frame=14777 fps=434 q=-0.0 size=N/A time=00:10:16.32 bitrate=N/A speed=18.1x    frame=15016 fps=435 q=-0.0 size=N/A time=00:10:26.29 bitrate=N/A speed=18.1x    frame=15221 fps=434 q=-0.0 size=N/A time=00:10:34.84 bitrate=N/A speed=18.1x    frame=15454 fps=435 q=-0.0 size=N/A time=00:10:44.56 bitrate=N/A speed=18.1x    frame=15691 fps=435 q=-0.0 size=N/A time=00:10:54.44 bitrate=N/A speed=18.1x    frame=15931 fps=435 q=-0.0 size=N/A time=00:11:04.49 bitrate=N/A speed=18.2x    frame=16182 fps=436 q=-0.0 size=N/A time=00:11:14.92 bitrate=N/A speed=18.2x    frame=16426 fps=436 q=-0.0 size=N/A time=00:11:25.10 bitrate=N/A speed=18.2x    frame=16649 fps=436 q=-0.0 size=N/A time=00:11:34.44 bitrate=N/A speed=18.2x    frame=16890 fps=437 q=-0.0 size=N/A time=00:11:44.45 bitrate=N/A speed=18.2x    frame=17121 fps=437 q=-0.0 size=N/A time=00:11:54.08 bitrate=N/A speed=18.2x    frame=17336 fps=437 q=-0.0 size=N/A time=00:12:03.05 bitrate=N/A speed=18.2x    frame=17574 fps=437 q=-0.0 size=N/A time=00:12:12.98 bitrate=N/A speed=18.2x    frame=17822 fps=437 q=-0.0 size=N/A time=00:12:23.32 bitrate=N/A speed=18.2x    frame=18050 fps=437 q=-0.0 size=N/A time=00:12:32.83 bitrate=N/A speed=18.2x    frame=18297 fps=438 q=-0.0 size=N/A time=00:12:43.13 bitrate=N/A speed=18.3x    frame=18557 fps=439 q=-0.0 size=N/A time=00:12:53.98 bitrate=N/A speed=18.3x    frame=18781 fps=439 q=-0.0 size=N/A time=00:13:03.32 bitrate=N/A speed=18.3x    frame=19040 fps=439 q=-0.0 size=N/A time=00:13:14.12 bitrate=N/A speed=18.3x    frame=19252 fps=439 q=-0.0 size=N/A time=00:13:22.96 bitrate=N/A speed=18.3x    frame=19471 fps=439 q=-0.0 size=N/A time=00:13:32.10 bitrate=N/A speed=18.3x    frame=19737 fps=440 q=-0.0 size=N/A time=00:13:43.19 bitrate=N/A speed=18.3x    frame=19981 fps=440 q=-0.0 size=N/A time=00:13:53.37 bitrate=N/A speed=18.4x    frame=20221 fps=441 q=-0.0 size=N/A time=00:14:03.38 bitrate=N/A speed=18.4x    frame=20461 fps=441 q=-0.0 size=N/A time=00:14:13.39 bitrate=N/A speed=18.4x    frame=20709 fps=441 q=-0.0 size=N/A time=00:14:23.73 bitrate=N/A speed=18.4x    frame=20933 fps=441 q=-0.0 size=N/A time=00:14:33.08 bitrate=N/A speed=18.4x    frame=21187 fps=442 q=-0.0 size=N/A time=00:14:43.67 bitrate=N/A speed=18.4x    frame=21425 fps=442 q=-0.0 size=N/A time=00:14:53.60 bitrate=N/A speed=18.4x    frame=21671 fps=442 q=-0.0 size=N/A time=00:15:03.86 bitrate=N/A speed=18.4x    frame=21893 fps=442 q=-0.0 size=N/A time=00:15:13.12 bitrate=N/A speed=18.4x    frame=22137 fps=442 q=-0.0 size=N/A time=00:15:23.29 bitrate=N/A speed=18.5x    frame=22361 fps=442 q=-0.0 size=N/A time=00:15:32.64 bitrate=N/A speed=18.4x    frame=22598 fps=442 q=-0.0 size=N/A time=00:15:42.52 bitrate=N/A speed=18.5x    frame=22835 fps=443 q=-0.0 size=N/A time=00:15:52.40 bitrate=N/A speed=18.5x    frame=23089 fps=443 q=-0.0 size=N/A time=00:16:03.00 bitrate=N/A speed=18.5x    frame=23318 fps=443 q=-0.0 size=N/A time=00:16:12.55 bitrate=N/A speed=18.5x    frame=23562 fps=443 q=-0.0 size=N/A time=00:16:22.73 bitrate=N/A speed=18.5x    frame=23797 fps=444 q=-0.0 size=N/A time=00:16:32.53 bitrate=N/A speed=18.5x    frame=24008 fps=443 q=-0.0 size=N/A time=00:16:41.33 bitrate=N/A speed=18.5x    frame=24231 fps=443 q=-0.0 size=N/A time=00:16:50.63 bitrate=N/A speed=18.5x    frame=24435 fps=443 q=-0.0 size=N/A time=00:16:59.14 bitrate=N/A speed=18.5x    frame=24656 fps=443 q=-0.0 size=N/A time=00:17:08.36 bitrate=N/A speed=18.5x    frame=24895 fps=443 q=-0.0 size=N/A time=00:17:18.32 bitrate=N/A speed=18.5x    frame=25112 fps=443 q=-0.0 size=N/A time=00:17:27.37 bitrate=N/A speed=18.5x    frame=25329 fps=442 q=-0.0 size=N/A time=00:17:36.43 bitrate=N/A speed=18.5x    frame=25560 fps=442 q=-0.0 size=N/A time=00:17:46.06 bitrate=N/A speed=18.4x    frame=25798 fps=443 q=-0.0 size=N/A time=00:17:56.03 bitrate=N/A speed=18.5x    frame=26046 fps=443 q=-0.0 size=N/A time=00:18:06.33 bitrate=N/A speed=18.5x    frame=26292 fps=443 q=-0.0 size=N/A time=00:18:16.59 bitrate=N/A speed=18.5x    frame=26540 fps=444 q=-0.0 size=N/A time=00:18:26.93 bitrate=N/A speed=18.5x    frame=26746 fps=443 q=-0.0 size=N/A time=00:18:35.53 bitrate=N/A speed=18.5x    frame=27000 fps=444 q=-0.0 size=N/A time=00:18:46.12 bitrate=N/A speed=18.5x    frame=27241 fps=444 q=-0.0 size=N/A time=00:18:56.17 bitrate=N/A speed=18.5x    frame=27443 fps=443 q=-0.0 size=N/A time=00:19:04.60 bitrate=N/A speed=18.5x    frame=27668 fps=443 q=-0.0 size=N/A time=00:19:13.98 bitrate=N/A speed=18.5x    frame=27915 fps=444 q=-0.0 size=N/A time=00:19:24.28 bitrate=N/A speed=18.5x    frame=28176 fps=444 q=-0.0 size=N/A time=00:19:35.17 bitrate=N/A speed=18.5x    frame=28425 fps=444 q=-0.0 size=N/A time=00:19:45.55 bitrate=N/A speed=18.5x    frame=28686 fps=445 q=-0.0 size=N/A time=00:19:56.44 bitrate=N/A speed=18.6x    frame=28934 fps=445 q=-0.0 size=N/A time=00:20:06.78 bitrate=N/A speed=18.6x    frame=29191 fps=446 q=-0.0 size=N/A time=00:20:17.50 bitrate=N/A speed=18.6x    frame=29445 fps=446 q=-0.0 size=N/A time=00:20:28.10 bitrate=N/A speed=18.6x    frame=29683 fps=446 q=-0.0 size=N/A time=00:20:38.02 bitrate=N/A speed=18.6x    frame=29881 fps=446 q=-0.0 size=N/A time=00:20:46.28 bitrate=N/A speed=18.6x    frame=30104 fps=446 q=-0.0 size=N/A time=00:20:55.58 bitrate=N/A speed=18.6x    frame=30307 fps=445 q=-0.0 size=N/A time=00:21:04.05 bitrate=N/A speed=18.6x    frame=30477 fps=444 q=-0.0 size=N/A time=00:21:11.14 bitrate=N/A speed=18.5x    frame=30669 fps=444 q=-0.0 size=N/A time=00:21:19.15 bitrate=N/A speed=18.5x    frame=30837 fps=443 q=-0.0 size=N/A time=00:21:26.15 bitrate=N/A speed=18.5x    frame=31027 fps=442 q=-0.0 size=N/A time=00:21:34.08 bitrate=N/A speed=18.4x    frame=31219 fps=442 q=-0.0 size=N/A time=00:21:42.09 bitrate=N/A speed=18.4x    frame=31405 fps=441 q=-0.0 size=N/A time=00:21:49.85 bitrate=N/A speed=18.4x    frame=31609 fps=441 q=-0.0 size=N/A time=00:21:58.35 bitrate=N/A speed=18.4x    frame=31821 fps=441 q=-0.0 size=N/A time=00:22:07.20 bitrate=N/A speed=18.4x    frame=32061 fps=441 q=-0.0 size=N/A time=00:22:17.21 bitrate=N/A speed=18.4x    frame=32315 fps=441 q=-0.0 size=N/A time=00:22:27.80 bitrate=N/A speed=18.4x    frame=32533 fps=441 q=-0.0 size=N/A time=00:22:36.89 bitrate=N/A speed=18.4x    frame=32768 fps=441 q=-0.0 size=N/A time=00:22:46.69 bitrate=N/A speed=18.4x    frame=33006 fps=441 q=-0.0 size=N/A time=00:22:56.62 bitrate=N/A speed=18.4x    frame=33213 fps=441 q=-0.0 size=N/A time=00:23:05.25 bitrate=N/A speed=18.4x    frame=33429 fps=441 q=-0.0 size=N/A time=00:23:14.26 bitrate=N/A speed=18.4x    frame=33655 fps=441 q=-0.0 size=N/A time=00:23:23.69 bitrate=N/A speed=18.4x    frame=33901 fps=441 q=-0.0 size=N/A time=00:23:33.95 bitrate=N/A speed=18.4x    frame=34149 fps=441 q=-0.0 size=N/A time=00:23:44.29 bitrate=N/A speed=18.4x    frame=34394 fps=442 q=-0.0 size=N/A time=00:23:54.51 bitrate=N/A speed=18.4x    frame=34597 fps=441 q=-0.0 size=N/A time=00:24:02.98 bitrate=N/A speed=18.4x    frame=34823 fps=441 q=-0.0 size=N/A time=00:24:12.40 bitrate=N/A speed=18.4x    [Parsed_psnr_10 @ 000002b59d9fd3c0] PSNR y:49.627169 u:52.163263 v:52.299337 average:50.334537 min:36.069846 max:inf
[out#0/null @ 000002b59b6a53c0] video:15073KiB audio:274344KiB subtitle:0KiB other streams:0KiB global headers:0KiB muxing overhead: unknown
frame=35079 fps=442 q=-0.0 Lsize=N/A time=00:24:23.08 bitrate=N/A speed=18.4x    
